<svg clip-rule="evenodd" fill-rule="evenodd" stroke-linejoin="round" stroke-miterlimit="2"  width="40" height="46" viewBox="0 0 24 28" fill="rgba(158, 45, 79, 0.56)" xmlns="http://www.w3.org/2000/svg">
	<path d="M10.5379 10.8442H0.587153C0.262877 10.8442 0 11.1101 0 11.438V11.5005C0 11.8284 0.262877 12.0942 0.587153 12.0942H10.5379C10.8621 12.0942 11.125 11.8284 11.125 11.5005V11.438C11.125 11.1101 10.8621 10.8442 10.5379 10.8442Z" fill="#9E2D4F" fill-opacity="0.56"/>
	<path d="M10.5379 13.9692H0.587153C0.262877 13.9692 0 14.2351 0 14.563V14.6255C0 14.9534 0.262877 15.2192 0.587153 15.2192H10.5379C10.8621 15.2192 11.125 14.9534 11.125 14.6255V14.563C11.125 14.2351 10.8621 13.9692 10.5379 13.9692Z" fill="#9E2D4F" fill-opacity="0.56"/>
	<path d="M10.5379 7.71936H0.587214C0.262938 7.71936 6.10352e-05 7.98519 6.10352e-05 8.31311V8.37561C6.10352e-05 8.70353 0.262938 8.96936 0.587214 8.96936H10.5379C10.8622 8.96936 11.1251 8.70353 11.1251 8.37561V8.31311C11.1251 7.98519 10.8622 7.71936 10.5379 7.71936Z" fill="#9E2D4F" fill-opacity="0.56"/>
</svg>