<svg width="25" height="25" viewBox="0 0 14 10" fill="none" xmlns="http://www.w3.org/2000/svg">
  <path d="M4.0772 0.839035C2.02341 0.839035 0.352783 2.02908 0.352783 3.49108V7.27866C0.352783 8.74029 2.02496 9.92923 4.07928 9.92923H9.40137C11.4552 9.92923 13.1258 8.73919 13.1258 7.27718V3.4896C13.1258 2.02797 11.4536 0.839035 9.39929 0.839035H4.0772ZM10.4647 2.35407C10.7585 2.35407 10.997 2.52375 10.997 2.73283C10.997 2.9419 10.7585 3.11158 10.4647 3.11158C10.171 3.11158 9.93254 2.9419 9.93254 2.73283C9.93254 2.52375 10.171 2.35407 10.4647 2.35407ZM6.73929 3.11158C8.50037 3.11158 9.93254 4.13082 9.93254 5.38413C9.93254 6.63744 8.50037 7.65668 6.73929 7.65668C4.97821 7.65668 3.54604 6.63744 3.54604 5.38413C3.54604 4.13082 4.97821 3.11158 6.73929 3.11158ZM6.73929 3.8691C6.17469 3.8691 5.63321 4.02872 5.23397 4.31284C4.83474 4.59697 4.61045 4.98232 4.61045 5.38413C4.61045 5.78595 4.83474 6.1713 5.23397 6.45542C5.63321 6.73955 6.17469 6.89917 6.73929 6.89917C7.30389 6.89917 7.84537 6.73955 8.2446 6.45542C8.64383 6.1713 8.86812 5.78595 8.86812 5.38413C8.86812 4.98232 8.64383 4.59697 8.2446 4.31284C7.84537 4.02872 7.30389 3.8691 6.73929 3.8691Z" fill="white"/>
</svg>
