<svg width="25" height="25" viewBox="0 0 14 10" fill="none" xmlns="http://www.w3.org/2000/svg">
  <path d="M7.09201 0.839035C3.56506 0.839035 0.705505 2.8741 0.705505 5.38413C0.705505 7.30974 2.38888 8.95431 4.76466 9.61638C4.70878 9.25694 4.65822 8.70509 4.78701 8.31269C4.90304 7.95817 5.53583 6.0534 5.53583 6.0534C5.53583 6.0534 5.34477 5.78107 5.34477 5.37883C5.34477 4.74668 5.85941 4.27513 6.50019 4.27513C7.04518 4.27513 7.30809 4.56639 7.30809 4.91523C7.30809 5.30535 6.95949 5.88826 6.77907 6.42837C6.62846 6.88099 7.09786 7.2499 7.72481 7.2499C8.86001 7.2499 9.7323 6.39807 9.7323 5.16862C9.7323 4.08045 8.63382 3.31952 7.06487 3.31952C5.24791 3.31952 4.18136 4.28952 4.18136 5.2921C4.18136 5.6826 4.39265 6.1015 4.65662 6.32951C4.70878 6.37459 4.71623 6.41398 4.7008 6.45981C4.65236 6.60336 4.54486 6.91204 4.52357 6.9753C4.4959 7.05862 4.43097 7.07605 4.31015 7.0359C3.51237 6.77152 3.01369 5.94167 3.01369 5.27505C3.01369 3.84145 4.47727 2.52451 7.23358 2.52451C9.44916 2.52451 11.1709 3.64791 11.1709 5.14968C11.1709 6.71623 9.78286 7.97673 7.85679 7.97673C7.20963 7.97673 6.60131 7.73736 6.39322 7.4548C6.39322 7.4548 6.07283 8.32254 5.99513 8.5354C5.8509 8.93007 5.46185 9.42511 5.20107 9.72698C5.79874 9.85803 6.43367 9.92923 7.09201 9.92923C10.619 9.92923 13.4785 7.89416 13.4785 5.38413C13.4785 2.8741 10.619 0.839035 7.09201 0.839035Z" fill="white"/>
</svg>
