<svg width="25" height="25" viewBox="0 0 13 10" fill="none" xmlns="http://www.w3.org/2000/svg">
  <path d="M6.44479 0.839035C4.38834 0.839035 1.7192 1.27236 1.7192 1.27236L1.71249 1.27882C0.775868 1.40479 0.0582886 2.08165 0.0582886 2.90481V5.38373V5.38454V7.86266V7.86346C0.0592026 8.25659 0.22673 8.63657 0.530791 8.93518C0.834851 9.23378 1.25553 9.43144 1.71728 9.49268L1.7192 9.4951C1.7192 9.4951 4.38834 9.92923 6.44479 9.92923C8.50125 9.92923 11.1704 9.4951 11.1704 9.4951L11.1713 9.49429C11.6336 9.43319 12.0548 9.23536 12.3591 8.93641C12.6633 8.63745 12.8308 8.25699 12.8313 7.86346V7.86266V5.38454V5.38373V2.90481C12.8306 2.51154 12.6632 2.13136 12.3591 1.83259C12.055 1.53382 11.6342 1.33604 11.1723 1.27478L11.1704 1.27236C11.1704 1.27236 8.50125 0.839035 6.44479 0.839035ZM4.97098 3.48258L8.90114 5.38373L4.97098 7.28488V3.48258Z" fill="white"/>
</svg>
